<svg width="30" height="30" viewBox="0 0 30 30" fill="none" xmlns="http://www.w3.org/2000/svg">
<rect width="30" height="30" rx="15" fill="white"/>
<g clip-path="url(#clip0_66_2519)">
<path d="M6.25 8.58466C6.25 8.02158 6.44708 7.55706 6.84122 7.19108C7.23535 6.82508 7.74775 6.64209 8.37838 6.64209C8.99775 6.64209 9.49887 6.82226 9.88176 7.18263C10.2759 7.55425 10.473 8.03847 10.473 8.63533C10.473 9.17587 10.2815 9.62631 9.89865 9.98668C9.50451 10.3583 8.98649 10.5441 8.34459 10.5441H8.3277C7.70833 10.5441 7.20721 10.3583 6.82432 9.98668C6.44144 9.61506 6.25 9.14771 6.25 8.58466ZM6.46959 23.3651V12.0813H10.2196V23.3651H6.46959ZM12.2973 23.3651H16.0473V17.0644C16.0473 16.6702 16.0923 16.3662 16.1824 16.1522C16.3401 15.7693 16.5794 15.4456 16.9003 15.1809C17.2213 14.9163 17.6239 14.784 18.1081 14.784C19.3694 14.784 20 15.6342 20 17.3347V23.3651H23.75V16.8955C23.75 15.2288 23.3559 13.9647 22.5676 13.1032C21.7793 12.2418 20.7376 11.811 19.4426 11.811C17.9899 11.811 16.8581 12.436 16.0473 13.686V13.7198H16.0304L16.0473 13.686V12.0813H12.2973C12.3198 12.4416 12.3311 13.5621 12.3311 15.4428C12.3311 17.3234 12.3198 19.9641 12.2973 23.3651Z" fill="#25408F"/>
</g>
<defs>
<clipPath id="clip0_66_2519">
<rect x="6.25" y="6.25" width="17.5" height="17.5" fill="white"/>
</clipPath>
</defs>
</svg>
