<svg width="30" height="30" viewBox="0 0 30 30" fill="none" xmlns="http://www.w3.org/2000/svg">
<rect width="30" height="30" rx="15" fill="white"/>
<path d="M23.7353 10.7059C23.5294 9.94118 22.9265 9.33824 22.1618 9.13235C20.7647 8.75 15.1765 8.75 15.1765 8.75C15.1765 8.75 9.58824 8.75 8.19118 9.11765C7.44118 9.32353 6.82353 9.94118 6.61765 10.7059C6.25 12.1029 6.25 15 6.25 15C6.25 15 6.25 17.9118 6.61765 19.2941C6.82353 20.0588 7.42647 20.6618 8.19118 20.8676C9.60294 21.25 15.1765 21.25 15.1765 21.25C15.1765 21.25 20.7647 21.25 22.1618 20.8824C22.9265 20.6765 23.5294 20.0735 23.7353 19.3088C24.1029 17.9118 24.1029 15.0147 24.1029 15.0147C24.1029 15.0147 24.1176 12.1029 23.7353 10.7059Z" fill="#25408F"/>
<path d="M13.397 17.6767L18.044 15.0002L13.397 12.3237V17.6767Z" fill="white"/>
</svg>
