<svg width="65" height="45" viewBox="0 0 65 45" fill="none" xmlns="http://www.w3.org/2000/svg">
<g clip-path="url(#clip0_134_929)">
<path d="M27.0545 4.91283C29.1487 2.76432 32.0643 1.43187 35.2888 1.43187C39.5753 1.43187 43.3151 3.7853 45.3066 7.27901C47.0373 6.5176 48.9529 6.09409 50.9685 6.09409C58.6997 6.09409 64.9675 12.3192 64.9675 19.9979C64.9675 27.6775 58.6997 33.9026 50.9685 33.9026C50.025 33.9026 49.1028 33.8097 48.2111 33.6321C46.4573 36.7123 43.1153 38.7934 39.2793 38.7934C37.6735 38.7934 36.1546 38.4282 34.8023 37.7788C33.0244 41.8964 28.8823 44.7836 24.0547 44.7836C19.0273 44.7836 14.7427 41.6514 13.0981 37.2588C12.3794 37.4091 11.6347 37.4874 10.8707 37.4874C4.88502 37.4874 0.0324707 32.6603 0.0324707 26.7048C0.0324707 22.7138 2.2127 19.2292 5.45205 17.3649C4.78512 15.8539 4.4142 14.1863 4.4142 12.433C4.4142 5.58406 10.0613 0.0320129 17.0266 0.0320129C21.116 0.0320129 24.7503 1.94645 27.0545 4.91283Z" fill="#00A1E0"/>
</g>
<defs>
<clipPath id="clip0_134_929">
<rect width="65" height="45" fill="white"/>
</clipPath>
</defs>
</svg>
